<mxfile host="app.diagrams.net" modified="2022-05-22T05:38:32.267Z" agent="5.0 (Macintosh; Intel Mac OS X 10_15_7) AppleWebKit/537.36 (KHTML, like Gecko) Chrome/101.0.4951.64 Safari/537.36" etag="z8EuBwkqQ7hbikzghVzB" version="18.0.5" type="github">
  <diagram id="3228e29e-7158-1315-38df-8450db1d8a1d" name="Page-1">
    <mxGraphModel dx="669" dy="-701" grid="0" gridSize="10" guides="1" tooltips="1" connect="1" arrows="1" fold="1" page="1" pageScale="1" pageWidth="600" pageHeight="350" background="#EFF1F3" math="0" shadow="0">
      <root>
        <mxCell id="0" />
        <mxCell id="1" parent="0" />
        <mxCell id="n8PQSL9Bu4Ly_2OT7yPN-3" value="" style="rounded=1;whiteSpace=wrap;html=1;fillColor=#4A919B;strokeColor=none;" parent="1" vertex="1">
          <mxGeometry x="107" y="1505" width="188.5" height="131" as="geometry" />
        </mxCell>
        <mxCell id="n8PQSL9Bu4Ly_2OT7yPN-6" value="" style="shadow=0;dashed=0;html=1;strokeColor=none;fillColor=#9AC7BF;labelPosition=center;verticalLabelPosition=bottom;verticalAlign=top;align=center;outlineConnect=0;shape=mxgraph.veeam.table;fontSize=22;" parent="1" vertex="1">
          <mxGeometry x="397.2" y="1422" width="89.8" height="89.8" as="geometry" />
        </mxCell>
        <mxCell id="n8PQSL9Bu4Ly_2OT7yPN-7" value="&lt;font color=&quot;#ffffff&quot; style=&quot;font-size: 22px;&quot;&gt;orm&lt;/font&gt;" style="rounded=1;whiteSpace=wrap;html=1;fillColor=#9AC7BF;strokeColor=none;" parent="1" vertex="1">
          <mxGeometry x="244.5" y="1520" width="44" height="102" as="geometry" />
        </mxCell>
        <mxCell id="n8PQSL9Bu4Ly_2OT7yPN-8" value="&lt;font color=&quot;#ffffff&quot;&gt;go/java&lt;/font&gt;" style="text;html=1;strokeColor=none;fillColor=none;align=center;verticalAlign=middle;whiteSpace=wrap;rounded=0;fontSize=22;" parent="1" vertex="1">
          <mxGeometry x="138.5" y="1555.5" width="60" height="30" as="geometry" />
        </mxCell>
        <mxCell id="n8PQSL9Bu4Ly_2OT7yPN-9" value="" style="shadow=0;dashed=0;html=1;strokeColor=none;fillColor=#9AC7BF;labelPosition=center;verticalLabelPosition=bottom;verticalAlign=top;align=center;outlineConnect=0;shape=mxgraph.veeam.table;fontSize=22;" parent="1" vertex="1">
          <mxGeometry x="397.2" y="1536" width="89.8" height="89.8" as="geometry" />
        </mxCell>
        <mxCell id="n8PQSL9Bu4Ly_2OT7yPN-10" value="" style="shadow=0;dashed=0;html=1;strokeColor=none;fillColor=#9AC7BF;labelPosition=center;verticalLabelPosition=bottom;verticalAlign=top;align=center;outlineConnect=0;shape=mxgraph.veeam.table;fontSize=22;" parent="1" vertex="1">
          <mxGeometry x="397.2" y="1650" width="89.8" height="89.8" as="geometry" />
        </mxCell>
        <mxCell id="n8PQSL9Bu4Ly_2OT7yPN-12" value="" style="shape=curlyBracket;whiteSpace=wrap;html=1;rounded=1;fontSize=22;fontColor=#FFFFFF;strokeColor=#5C5C5C;fillColor=none;strokeWidth=3;" parent="1" vertex="1">
          <mxGeometry x="319" y="1441" width="43" height="275" as="geometry" />
        </mxCell>
        <mxCell id="n8PQSL9Bu4Ly_2OT7yPN-13" value="&lt;span style=&quot;font-size: 15px;&quot;&gt;user0&lt;/span&gt;" style="text;strokeColor=none;fillColor=none;html=1;fontSize=24;fontStyle=1;verticalAlign=middle;align=center;fontColor=#FFFFFF;" parent="1" vertex="1">
          <mxGeometry x="392.1" y="1411" width="100" height="40" as="geometry" />
        </mxCell>
        <mxCell id="n8PQSL9Bu4Ly_2OT7yPN-14" value="&lt;span style=&quot;font-size: 15px;&quot;&gt;user1&lt;/span&gt;&lt;span style=&quot;color: rgba(0, 0, 0, 0); font-family: monospace; font-size: 0px; font-weight: 400; text-align: start;&quot;&gt;%3CmxGraphModel%3E%3Croot%3E%3CmxCell%20id%3D%220%22%2F%3E%3CmxCell%20id%3D%221%22%20parent%3D%220%22%2F%3E%3CmxCell%20id%3D%222%22%20value%3D%22%26lt%3Bspan%20style%3D%26quot%3Bfont-size%3A%2015px%3B%26quot%3B%26gt%3Buser0%26lt%3B%2Fspan%26gt%3B%22%20style%3D%22text%3BstrokeColor%3Dnone%3BfillColor%3Dnone%3Bhtml%3D1%3BfontSize%3D24%3BfontStyle%3D1%3BverticalAlign%3Dmiddle%3Balign%3Dcenter%3BfontColor%3D%23FFFFFF%3B%22%20vertex%3D%221%22%20parent%3D%221%22%3E%3CmxGeometry%20x%3D%22328.1%22%20y%3D%221315%22%20width%3D%22100%22%20height%3D%2240%22%20as%3D%22geometry%22%2F%3E%3C%2FmxCell%3E%3C%2Froot%3E%3C%2FmxGraphModel%3E&lt;/span&gt;" style="text;strokeColor=none;fillColor=none;html=1;fontSize=24;fontStyle=1;verticalAlign=middle;align=center;fontColor=#FFFFFF;" parent="1" vertex="1">
          <mxGeometry x="392.1" y="1525" width="100" height="40" as="geometry" />
        </mxCell>
        <mxCell id="n8PQSL9Bu4Ly_2OT7yPN-15" value="&lt;span style=&quot;font-size: 15px;&quot;&gt;user2&lt;/span&gt;" style="text;strokeColor=none;fillColor=none;html=1;fontSize=24;fontStyle=1;verticalAlign=middle;align=center;fontColor=#FFFFFF;" parent="1" vertex="1">
          <mxGeometry x="392.1" y="1640" width="100" height="40" as="geometry" />
        </mxCell>
      </root>
    </mxGraphModel>
  </diagram>
</mxfile>
